<svg xmlns="http://www.w3.org/2000/svg" width="630.872" height="673.481" viewBox="0 0 630.872 673.481">
  <g id="Group_11" data-name="Group 11" transform="translate(-169 -5043.993)">
    <path id="Path_9" data-name="Path 9" d="M0,191.32a1098.667,1098.667,0,0,1,153.375-18.672c6.429-.346,12.874-.571,19.3-.856s12.889-.33,19.333-.511,12.889-.105,19.333-.15h9.674c3.23,0,6.459.225,9.674.481,12.889,1.022,25.658,2.884,38.381,5s25.372,4.507,38.006,7.12c50.474,10.515,100.482,23,150.355,35.963q37.4,9.779,74.659,20.039t74.344,21.151q-37.179-10.515-74.524-20.46t-74.719-19.769c-49.9-12.814-99.956-25.132-150.415-35.482-12.618-2.539-25.252-5.047-37.946-7.18s-25.477-4.056-38.231-5.092c-3.2-.27-6.414-.436-9.614-.511s-6.429,0-9.644,0c-6.444,0-12.874-.105-19.318.09s-12.874.18-19.3.436-12.874.466-19.3.781q-38.576,1.908-76.988,6.384C50.849,182.952,25.312,186.467,0,191.32Z" transform="translate(169 5129.935)" fill="#ebebeb"/>
    <path id="Path_10" data-name="Path 10" d="M2.75,162.953c25.537-.646,51.075-1.067,76.612-1.4s51.075-.345,76.612-.345l38.306.135,19.153.135c3.2,0,6.384,0,9.584.135s6.414.2,9.6.436c12.769.841,25.537,2.238,38.141,3.876s25.327,3.41,37.946,5.408c50.474,7.977,100.647,17.486,150.806,27.295q37.555,7.421,75.11,15.2T609.5,230q-37.48-7.887-75.11-15.4t-75.11-14.932c-50.143-9.659-100.377-19-150.836-26.8q-18.928-3-37.9-5.5c-12.648-1.667-25.327-3.095-38.051-3.981-3.17-.255-6.354-.361-9.539-.466s-6.369-.105-9.569-.165l-19.138-.21-38.306-.255q-38.306-.135-76.612.09Q41.071,162.4,2.75,162.953Z" transform="translate(170.381 5124.953)" fill="#ebebeb"/>
    <path id="Path_11" data-name="Path 11" d="M5.92,136.74l76.086,6.009,76.086,6.234,38.036,3.11c12.679,1.052,25.357,1.983,38.021,3.32,6.354.571,12.664,1.4,18.988,2.088s12.633,1.5,18.943,2.253q18.943,2.313,37.87,4.837c50.444,6.775,100.8,14.046,151.151,21.406l75.516,11.221,75.44,11.627-151.091-21.9c-50.369-7.2-100.768-14.3-151.211-20.911-25.222-3.32-50.444-6.655-75.726-9.374C221.4,155.292,208.7,154.3,196.023,153.2L158,149.959l-76.056-6.474Z" transform="translate(171.973 5112.664)" fill="#ebebeb"/>
    <path id="Path_12" data-name="Path 12" d="M10.33,101.08C34.8,108.26,59.467,114.7,84.223,120.834s49.573,12.018,74.509,17.245l18.717,3.876,18.762,3.7c6.249,1.247,12.528,2.328,18.792,3.515s12.543,2.253,18.838,3.2c25.207,3.786,50.549,6.565,75.906,9.329,50.684,5.5,101.474,10.155,152.278,14.616l76.237,6.429L614.5,189l-76.3-5.543q-38.141-3-76.252-6.174c-50.834-4.281-101.639-8.788-152.368-14.121q-19.018-2-38.006-4.371-19-2.253-37.931-5.168c-6.294-.961-12.588-2.073-18.853-3.275s-12.543-2.3-18.792-3.575l-18.762-3.756-18.687-3.936C108.664,128.285,59.151,115.832,10.33,101.08Z" transform="translate(174.188 5094.755)" fill="#ebebeb"/>
    <path id="Path_13" data-name="Path 13" d="M14.5,67.37Q48.87,85.4,84.262,101.245c23.524,10.636,47.334,20.79,71.595,29.683s49.047,16.524,74.554,20.58,51.2,7,76.928,9.449q77.2,7.166,154.727,9.449c12.919.481,25.853.616,38.772.886l19.378.105h9.7l9.689-.09c25.838-.21,51.721-.8,77.453-3.395-25.718,2.839-51.6,3.665-77.438,4.116l-9.7.15h-29.1c-12.919-.225-25.853-.331-38.787-.751q-77.559-2.073-154.892-9.013c-25.733-2.539-51.45-5.423-76.988-9.719s-50.414-12.018-74.674-20.881C107.02,113.773,60.182,91.585,14.5,67.37Z" transform="translate(176.282 5077.826)" fill="#ebebeb"/>
    <path id="Path_14" data-name="Path 14" d="M193.06,147.587a7.511,7.511,0,1,1,.27-5.792,7.511,7.511,0,0,1-.27,5.792Z" transform="translate(258.774 5112.723)" fill="#ebebeb"/>
    <rect id="Rectangle_9" data-name="Rectangle 9" width="5.783" height="38.051" transform="translate(462.7 5223.222) rotate(24.97)" fill="#ebebeb"/>
    <path id="Path_15" data-name="Path 15" d="M210.94,147.777a7.511,7.511,0,1,1,.27-5.792A7.511,7.511,0,0,1,210.94,147.777Z" transform="translate(267.753 5112.818)" fill="#ebebeb"/>
    <rect id="Rectangle_10" data-name="Rectangle 10" width="5.783" height="38.051" transform="translate(489.555 5223.575) rotate(24.97)" fill="#ebebeb"/>
    <path id="Path_16" data-name="Path 16" d="M228.285,122.772l-34.205,1.743,2.148-4.627,34.205-1.728Z" transform="translate(266.467 5103.333)" fill="#ebebeb"/>
    <path id="Path_17" data-name="Path 17" d="M225.6,128.567l-34.22,1.728,2.148-4.612,34.22-1.743Z" transform="translate(265.111 5106.235)" fill="#ebebeb"/>
    <path id="Path_18" data-name="Path 18" d="M378.469,205.044a6.4,6.4,0,1,1-3.095-8.5A6.4,6.4,0,0,1,378.469,205.044Z" transform="translate(352.939 5142.394)" fill="#ebebeb"/>
    <rect id="Rectangle_11" data-name="Rectangle 11" width="4.882" height="32.177" transform="translate(740.593 5316.076) rotate(24.97)" fill="#ebebeb"/>
    <path id="Path_19" data-name="Path 19" d="M393.589,205.214a6.4,6.4,0,1,1-3.094-8.5A6.4,6.4,0,0,1,393.589,205.214Z" transform="translate(360.533 5142.479)" fill="#ebebeb"/>
    <rect id="Rectangle_12" data-name="Rectangle 12" width="4.882" height="32.177" transform="translate(763.303 5316.396) rotate(24.97)" fill="#ebebeb"/>
    <path id="Path_20" data-name="Path 20" d="M408.237,184.056l-28.947,1.457,1.818-3.891,28.932-1.472Z" transform="translate(359.479 5134.464)" fill="#ebebeb"/>
    <path id="Path_21" data-name="Path 21" d="M93.783,125.746a6.4,6.4,0,1,1,.234-4.919A6.4,6.4,0,0,1,93.783,125.746Z" transform="translate(209.979 5102.552)" fill="#ebebeb"/>
    <rect id="Rectangle_13" data-name="Rectangle 13" width="4.882" height="32.177" transform="translate(312.95 5197.002) rotate(24.97)" fill="#ebebeb"/>
    <path id="Path_22" data-name="Path 22" d="M108.909,125.934a6.384,6.384,0,1,1,.219-4.894A6.4,6.4,0,0,1,108.909,125.934Z" transform="translate(217.567 5102.665)" fill="#ebebeb"/>
    <rect id="Rectangle_14" data-name="Rectangle 14" width="4.882" height="32.177" transform="translate(335.667 5197.295) rotate(24.97)" fill="#ebebeb"/>
    <path id="Path_23" data-name="Path 23" d="M123.557,104.776,94.61,106.248l1.818-3.906,28.932-1.472Z" transform="translate(216.513 5094.65)" fill="#ebebeb"/>
    <path id="Path_24" data-name="Path 24" d="M290.49,185.587a7.511,7.511,0,1,1,.27-5.792A7.511,7.511,0,0,1,290.49,185.587Z" transform="translate(307.703 5131.806)" fill="#ebebeb"/>
    <rect id="Rectangle_15" data-name="Rectangle 15" width="5.783" height="38.051" transform="translate(609.072 5280.458) rotate(24.97)" fill="#ebebeb"/>
    <rect id="Rectangle_16" data-name="Rectangle 16" width="5.783" height="10.996" transform="translate(631.011 5279.852) rotate(24.97)" fill="#ebebeb"/>
    <path id="Path_25" data-name="Path 25" d="M320.217,161.062,291.51,162.5l2.148-4.612,28.707-1.442Z" transform="translate(315.396 5122.563)" fill="#ebebeb"/>
    <path id="Path_26" data-name="Path 26" d="M317.527,166.852l-28.707,1.427,2.148-4.612,28.707-1.427Z" transform="translate(314.045 5125.47)" fill="#ebebeb"/>
    <path id="Path_27" data-name="Path 27" d="M348.906,140.429a4.747,4.747,0,1,1-2.584-6.189,4.747,4.747,0,0,1,2.584,6.189Z" transform="translate(339.63 5111.228)" fill="#ebebeb"/>
    <rect id="Rectangle_17" data-name="Rectangle 17" width="3.62" height="23.87" transform="translate(694.232 5228.184) rotate(22.31)" fill="#ebebeb"/>
    <rect id="Rectangle_18" data-name="Rectangle 18" width="3.62" height="6.895" transform="translate(707.978 5227.149) rotate(22.31)" fill="#ebebeb"/>
    <path id="Path_28" data-name="Path 28" d="M366.811,124.389l-17.951,1.743,1.2-2.959,17.951-1.743Z" transform="translate(344.197 5104.975)" fill="#ebebeb"/>
    <path id="Path_29" data-name="Path 29" d="M365.3,128.084l-17.966,1.743,1.217-2.959L366.5,125.14Z" transform="translate(343.429 5106.839)" fill="#ebebeb"/>
    <path id="Path_30" data-name="Path 30" d="M74.958,177.293a4.747,4.747,0,1,1-2.6-6.174A4.747,4.747,0,0,1,74.958,177.293Z" transform="translate(202.05 5129.75)" fill="#ebebeb"/>
    <rect id="Rectangle_19" data-name="Rectangle 19" width="3.62" height="23.87" transform="translate(282.708 5283.524) rotate(22.31)" fill="#ebebeb"/>
    <rect id="Rectangle_20" data-name="Rectangle 20" width="3.62" height="6.895" transform="translate(296.452 5282.525) rotate(22.31)" fill="#ebebeb"/>
    <path id="Path_31" data-name="Path 31" d="M92.851,161.259,74.9,162.987l1.217-2.944L94.068,158.3Z" transform="translate(206.615 5123.492)" fill="#ebebeb"/>
    <path id="Path_32" data-name="Path 32" d="M91.331,164.954,73.38,166.7l1.217-2.959,17.951-1.728Z" transform="translate(205.851 5125.354)" fill="#ebebeb"/>
    <path id="Path_33" data-name="Path 33" d="M211.474,184.893a4.732,4.732,0,1,1,0-3.64,4.747,4.747,0,0,1,0,3.64Z" transform="translate(270.614 5133.552)" fill="#ebebeb"/>
    <rect id="Rectangle_21" data-name="Rectangle 21" width="3.62" height="23.87" transform="translate(487.785 5294.943) rotate(22.31)" fill="#ebebeb"/>
    <rect id="Rectangle_22" data-name="Rectangle 22" width="3.62" height="6.895" transform="translate(501.531 5293.923) rotate(22.31)" fill="#ebebeb"/>
    <path id="Path_34" data-name="Path 34" d="M229.381,168.834l-17.951,1.743,1.2-2.959,17.951-1.728Z" transform="translate(275.18 5127.303)" fill="#ebebeb"/>
    <path id="Path_35" data-name="Path 35" d="M227.861,172.549l-17.951,1.743,1.2-2.959,17.951-1.743Z" transform="translate(274.417 5129.161)" fill="#ebebeb"/>
    <path id="Path_36" data-name="Path 36" d="M62.223,158.875a7.421,7.421,0,0,1-6.279,2.013,13.37,13.37,0,0,1-6.354-2.328,11.732,11.732,0,0,1-4.311-5.333,12.934,12.934,0,0,1-.6-6.88,18.026,18.026,0,0,1,7.03-11.642,18.372,18.372,0,0,1,13.52-2.869,22.533,22.533,0,0,1,12.378,6.249A19.979,19.979,0,0,1,83.524,150.7a34.07,34.07,0,0,1-2.193,13.775,28.016,28.016,0,0,1-7.977,11.537,25.072,25.072,0,0,1-12.949,5.618,35.076,35.076,0,0,1-26.394-7.826,32.207,32.207,0,0,1-8.548-11.236,31.17,31.17,0,0,1-2.779-13.85,34.761,34.761,0,0,1,3.41-13.685,43.639,43.639,0,0,1,8.067-11.462,94.368,94.368,0,0,1,10.32-9.163c7.226-5.6,14.8-10.515,21.527-16.419a64.084,64.084,0,0,0,9.178-9.554,24.486,24.486,0,0,0,5.062-11.552A11.116,11.116,0,0,0,79.438,71a6.9,6.9,0,0,0-3.966-3.755,5.844,5.844,0,0,0-5.228.871,10.786,10.786,0,0,0-3.605,4.717,60.192,60.192,0,0,0-2.914,12.889c-.661,4.507-1.2,8.938-1.7,13.43-1.983,18.026-3.455,36.053-5.333,54.079-.976,9.013-2.013,18.026-3.35,27.04-.676,4.507-1.412,9.013-2.4,13.4a45.847,45.847,0,0,1-1.893,6.55,8.578,8.578,0,0,1-4.852,4.341,8.547,8.547,0,0,0,4.777-4.507,48.208,48.208,0,0,0,1.637-6.565c.856-4.431,1.5-8.908,2.043-13.4,1.082-9.013,1.893-18.026,2.629-27.04,1.5-18.026,2.749-36.053,4.507-54.184.436-4.507.9-9.013,1.5-13.52.285-2.253.661-4.507,1.067-6.775a34.985,34.985,0,0,1,1.878-6.82,13.73,13.73,0,0,1,4.507-5.934,8.683,8.683,0,0,1,7.691-1.262,9.719,9.719,0,0,1,5.693,5.243,14.091,14.091,0,0,1,1.1,7.406A27.535,27.535,0,0,1,77.56,90.21a68.3,68.3,0,0,1-9.554,10.08c-6.925,6.009-14.511,11.131-21.587,16.629s-13.955,11.6-17.711,19.423a31.546,31.546,0,0,0-3.185,12.483,28.271,28.271,0,0,0,2.464,12.558,29.127,29.127,0,0,0,7.721,10.26,31.818,31.818,0,0,0,11.372,6.144,32.763,32.763,0,0,0,12.874,1.2,22.442,22.442,0,0,0,11.732-4.852c6.7-5.453,9.99-14.661,9.764-23.284a18.131,18.131,0,0,0-5.213-11.537,21.391,21.391,0,0,0-11.387-6.009,16.9,16.9,0,0,0-12.528,2.343,16.99,16.99,0,0,0-6.85,10.891,12.273,12.273,0,0,0,.406,6.5,11.146,11.146,0,0,0,3.981,5.168,12.9,12.9,0,0,0,6.159,2.434A7.361,7.361,0,0,0,62.223,158.875Z" transform="translate(180.385 5076.213)" fill="#ebebeb"/>
    <path id="Path_37" data-name="Path 37" d="M44.518,159.184a7.511,7.511,0,1,1,.86-5.741A7.511,7.511,0,0,1,44.518,159.184Z" transform="translate(184.36 5118.206)" fill="#ebebeb"/>
    <rect id="Rectangle_23" data-name="Rectangle 23" width="1.502" height="141.943" transform="translate(721.404 5043.993)" fill="#c7c7c7"/>
    <path id="Path_38" data-name="Path 38" d="M326.82,145.669l5,11H446.23l4.987-11L402.5,111.96H375.536Z" transform="translate(333.129 5100.219)" fill="#ebebeb"/>
    <path id="Path_39" data-name="Path 39" d="M357,90.34l3.38,32.478h26.965l3.38-32.478Z" transform="translate(348.285 5089.362)" fill="#dbdbdb"/>
    <path id="Path_40" data-name="Path 40" d="M326.83,134.4l5,11H446.225l4.987-11Z" transform="translate(333.134 5111.489)" fill="#dbdbdb"/>
    <rect id="Rectangle_24" data-name="Rectangle 24" width="1.502" height="106.476" transform="translate(610.541 5043.993)" fill="#c7c7c7"/>
    <path id="Path_41" data-name="Path 41" d="M253.03,122.049l5,11H372.425l4.987-11-48.7-33.709H301.731Z" transform="translate(296.071 5088.357)" fill="#ebebeb"/>
    <path id="Path_42" data-name="Path 42" d="M283.2,66.72,286.58,99.2h26.979l3.38-32.478Z" transform="translate(311.223 5077.5)" fill="#dbdbdb"/>
    <path id="Path_43" data-name="Path 43" d="M253.04,110.79l5,11H372.435l4.987-11Z" transform="translate(296.077 5099.632)" fill="#dbdbdb"/>
    <path id="Path_44" data-name="Path 44" d="M59.889,304.436l-19.724.406-10,.18c-3.335,0-6.7,0-10.05.075h-.676v-.661l-.075-16.81v-.766h.751L40,286.95c6.625,0,13.249.165,19.889.24h.406v.406c0,2.839-.12,5.678-.2,8.487Zm0,0-.21-8.5c-.075-2.794-.18-5.558-.2-8.307l.406.406c-6.64.075-13.264.24-19.889.24l-19.889.105.751-.751-.09,16.81-.661-.676c3.275,0,6.55,0,9.824.075l9.884.18Z" transform="translate(178.723 5188.054)" fill="#ebebeb"/>
    <path id="Path_45" data-name="Path 45" d="M45.094,318.531l-19.724.406-10,.18c-3.335,0-6.7,0-10.05.075H4.64V301h.766l19.889.09c6.625,0,13.249.165,19.889.24h.406v.406c0,2.839-.135,5.678-.2,8.487Zm0,0-.225-8.517c0-2.794-.165-5.558-.2-8.307l.421.406c-6.64.075-13.264.24-19.889.24l-19.889.15.751-.736-.09,16.81-.661-.676H15.14l9.884.18Z" transform="translate(171.33 5195.155)" fill="#ebebeb"/>
    <path id="Path_46" data-name="Path 46" d="M199.329,213.331l-19.724.421-10,.165c-3.335.075-6.7,0-10.05.09h-.661V195.77h.751l19.889.09c6.625,0,13.264.18,19.889.255h.406v.406c0,2.854-.12,5.693-.2,8.487Zm0,0-.21-8.487c0-2.809-.165-5.573-.2-8.322l.406.406c-6.625.09-13.264.24-19.889.255l-19.889.09.751-.751-.09,16.81-.661-.661h9.824l9.885.165Z" transform="translate(248.794 5142.309)" fill="#ebebeb"/>
    <path id="Path_47" data-name="Path 47" d="M184.549,227.441l-19.724.421-10,.165c-3.335,0-6.7,0-10.05.09H144.1v-.676l-.075-16.81v-.751h.751l19.889.09c6.625,0,13.249.18,19.889.255h.406v.406c0,2.854-.135,5.693-.2,8.487Zm0,0-.21-8.487c-.075-2.809-.18-5.573-.21-8.322l.421.406c-6.64,0-13.264.24-19.889.255l-19.889.09.751-.751-.03,16.81-.661-.676c3.275,0,6.535,0,9.824.09l9.884.165Z" transform="translate(241.327 5149.395)" fill="#ebebeb"/>
    <path id="Path_48" data-name="Path 48" d="M214.344,227.421l-19.724.421-10.035.225c-3.35,0-6.7,0-10.05.09h-.676V209.92h.766l19.889.09c6.625,0,13.249.18,19.889.255h.406v.406c0,2.854-.135,5.693-.2,8.487Zm0,0-.225-8.487c0-2.809-.165-5.573-.2-8.322l.421.406c-6.64,0-13.264.24-19.889.255l-19.889.09.736-.751v16.81l-.661-.676c3.275,0,6.535,0,9.824.09l9.884.165Z" transform="translate(256.312 5149.415)" fill="#ebebeb"/>
    <path id="Path_49" data-name="Path 49" d="M425.949,318.531l-19.709.406-10,.18c-3.35,0-6.715,0-10.065.075h-.661v-.661l-.09-16.81V301h.751l19.889.09c6.64,0,13.264.165,19.889.24h.421v.406c0,2.839-.135,5.678-.2,8.487Zm0,0-.21-8.5c0-2.794-.165-5.558-.2-8.307l.406.406c-6.625.075-13.249.24-19.889.24l-19.889.09.751-.736-.075,16.81-.676-.676h9.839l9.884.18Z" transform="translate(362.558 5195.155)" fill="#ebebeb"/>
    <path id="Path_50" data-name="Path 50" d="M411.179,60.076,391.47,60.5l-10,.165c-3.35,0-6.715,0-10.065.09h-.661v-.676l-.09-16.825V42.5h.751l19.889.09c6.64,0,13.264.18,19.889.255h.421v.406c0,2.854-.12,5.693-.2,8.487Zm0,0-.21-8.487c-.075-2.809-.165-5.573-.2-8.322l.406.406c-6.625,0-13.249.24-19.889.255l-19.889.09.751-.751v16.81l-.676-.676c3.275,0,6.55,0,9.839.09l9.884.165Z" transform="translate(355.14 5065.337)" fill="#ebebeb"/>
    <path id="Path_51" data-name="Path 51" d="M425.949,74.181,406.24,74.6l-10,.165c-3.35,0-6.715,0-10.065.09h-.661v-.676l-.09-16.81V56.62h.751l19.889.09c6.64,0,13.264.18,19.889.255h.421v.406c0,2.854-.135,5.693-.2,8.487Zm0,0-.21-8.487c0-2.809-.165-5.573-.2-8.322l.406.406c-6.625,0-13.249.24-19.889.255l-19.889.09.751-.751-.075,16.81-.676-.676c3.29,0,6.55,0,9.839.09l9.884.165Z" transform="translate(362.558 5072.428)" fill="#ebebeb"/>
    <path id="Path_52" data-name="Path 52" d="M59.889,60.076,40.165,60.5l-10,.165c-3.335,0-6.7,0-10.05.09h-.676v-.676L19.36,43.251V42.5h.751L40,42.59c6.625,0,13.249.18,19.889.255h.406v.406c0,2.854-.12,5.693-.2,8.487Zm0,0-.21-8.487c-.075-2.809-.18-5.573-.2-8.322l.406.406c-6.64,0-13.264.24-19.889.255l-19.889.09.751-.751-.09,16.81-.661-.676c3.275,0,6.55,0,9.824.09l9.884.165Z" transform="translate(178.723 5065.337)" fill="#ebebeb"/>
    <path id="Path_53" data-name="Path 53" d="M9.679,402.928H290.139l5.829-115.068H3.85Z" transform="translate(170.933 5188.557)" fill="#ebebeb"/>
    <path id="Path_54" data-name="Path 54" d="M225.51,336.288H108.263L106.07,296.33H228.079Zm-115.91-1.4H224.188l2.373-37.119h-119Z" transform="translate(222.268 5192.811)" fill="#dbdbdb"/>
    <path id="Path_55" data-name="Path 55" d="M221.679,365.573H111.193l-1.8-36.053H223.933Zm-109.15-1.412H220.357l2.073-33.229H110.877Z" transform="translate(223.936 5209.478)" fill="#dbdbdb"/>
    <path id="Path_56" data-name="Path 56" d="M161.051,315.729H141.417L140.17,306.1H162.3Zm-18.462-1.412H159.8l.886-6.8H141.717Z" transform="translate(239.393 5197.716)" fill="#dbdbdb"/>
    <path id="Path_57" data-name="Path 57" d="M161.051,347.954H141.417l-1.247-9.644H162.3Zm-18.462-1.5H159.8l.886-6.8H141.717Z" transform="translate(239.393 5213.892)" fill="#dbdbdb"/>
    <path id="Path_58" data-name="Path 58" d="M133.68,336.288H16.508L14.3,296.33H136.249Zm-115.91-1.4H132.358l2.373-37.119h-119Z" transform="translate(176.181 5192.811)" fill="#dbdbdb"/>
    <path id="Path_59" data-name="Path 59" d="M129.869,365.573H19.383l-1.8-36.053H132.123ZM20.72,364.161H128.547l2.073-33.229H19.067Z" transform="translate(177.829 5209.478)" fill="#dbdbdb"/>
    <path id="Path_60" data-name="Path 60" d="M69.261,315.729H49.567L48.32,306.1H70.507Zm-18.417-1.412h17.17l.856-6.865H49.927Z" transform="translate(193.266 5197.716)" fill="#dbdbdb"/>
    <path id="Path_61" data-name="Path 61" d="M69.261,347.954H49.567L48.32,338.31H70.507Zm-18.462-1.5H68.014l.886-6.8H49.927Z" transform="translate(193.266 5213.892)" fill="#dbdbdb"/>
    <path id="Path_62" data-name="Path 62" d="M28.573,364.46,26.8,377,23.27,402.2H16.33V364.46Z" transform="translate(177.201 5227.025)" fill="#ebebeb"/>
    <path id="Path_63" data-name="Path 63" d="M28.573,364.46,26.8,377H16.33V364.46Z" transform="translate(177.201 5227.025)" fill="#dbdbdb"/>
    <path id="Path_64" data-name="Path 64" d="M177.69,364.46,179.448,377l3.545,25.192h6.925V364.46Z" transform="translate(258.236 5227.025)" fill="#ebebeb"/>
    <path id="Path_65" data-name="Path 65" d="M177.69,364.46,179.448,377h10.47V364.46Z" transform="translate(258.236 5227.025)" fill="#dbdbdb"/>
    <path id="Path_66" data-name="Path 66" d="M3.13,389.831l77.213-.361,77.228-.135,154.441-.255,154.426.255,77.228.12,77.213.376-77.213.361-77.228.135-154.426.255-154.441-.255-77.228-.135Z" transform="translate(170.572 5239.389)" fill="#263238"/>
    <ellipse id="Ellipse_1" data-name="Ellipse 1" cx="270.065" cy="33.815" rx="270.065" ry="33.815" transform="translate(212.504 5649.845)" fill="#ebebeb"/>
    <path id="Path_67" data-name="Path 67" d="M372.93,359.162s15.022-53.974,27.04-72.3,34.385-38.471,34.385-38.471S433.844,331.612,372.93,359.162Z" transform="translate(356.285 5168.734)" fill="#ce5e3b"/>
    <path id="Path_68" data-name="Path 68" d="M373.671,350.887a260.326,260.326,0,0,0,13.715-26.138,182.762,182.762,0,0,1,7.511-28.392c0-.165.3,0,.255.105-1.983,8.517-4.311,16.975-6.414,25.537,6.009-13.144,11.837-26.439,19.063-38.862a83.366,83.366,0,0,1,6.97-17.275c.09-.15.346,0,.27.105a107.633,107.633,0,0,0-4.687,12.949,129.022,129.022,0,0,1,11.417-15.773c.27-.315.8,0,.526.361-9.659,12.333-16.329,26.364-22.683,40.559a214.137,214.137,0,0,0,18.868-23.585c0-.075.18,0,.135.105a195.112,195.112,0,0,1-20.2,26.183c-4.687,10.305-9.193,20.82-14.752,30.735,11.026-9.329,19.529-21.391,27.911-33.048a.248.248,0,1,1,.406.285c-8.4,12.769-17.08,24.786-29.173,34.235a130.942,130.942,0,0,1-8.067,12.618.646.646,0,0,1-1.067-.706Z" transform="translate(356.626 5176.078)" fill="#263238"/>
    <path id="Path_69" data-name="Path 69" d="M375.467,380.014S402.506,330.246,394.65,282s-16.269-65.436-16.269-65.436S335.9,291.61,375.467,380.014Z" transform="translate(349.092 5152.75)" fill="#ce5e3b"/>
    <path id="Path_70" data-name="Path 70" d="M362.531,293.89a234.627,234.627,0,0,0,10.425,40.139c.075-17.711.421-35.407.886-53.118a136.7,136.7,0,0,1-5.092-33.048.248.248,0,0,1,.5,0,187.784,187.784,0,0,0,4.732,28.377q.631-21.9,1.427-43.8a.2.2,0,0,1,.391,0c0,22.818,0,45.637-.165,68.455a181.781,181.781,0,0,0,7.8-27.04c0-.09.165-.075.15,0-.811,10.666-4.041,21.031-7.977,30.855-.105,14.586-.255,29.173-.586,43.759,4.582-15.518,9.464-30.525,10.786-46.914a.18.18,0,0,1,.346,0c-.361,18.026-5.017,36.413-10.981,53.418a1.128,1.128,0,0,1-.3.421q-.21,8.007-.466,15.983a.6.6,0,0,1-1.187,0q-.315-16.359-.27-32.718a146.629,146.629,0,0,1-10.651-44.8C362.275,293.785,362.5,293.755,362.531,293.89Z" transform="translate(350.942 5160.624)" fill="#263238"/>
    <path id="Path_71" data-name="Path 71" d="M363.881,268.231a94.551,94.551,0,0,1,1.893,13.144c0,.15-.225.165-.27,0a94.292,94.292,0,0,1-2.223-13.1C363.25,267.99,363.821,267.9,363.881,268.231Z" transform="translate(351.439 5178.592)" fill="#263238"/>
    <path id="Path_72" data-name="Path 72" d="M374.694,243.972c0-.15.255-.105.255,0a34.248,34.248,0,0,1-1.352,9.013.2.2,0,0,1-.375-.105C373.822,249.981,374.183,246.977,374.694,243.972Z" transform="translate(356.429 5166.467)" fill="#263238"/>
    <path id="Path_73" data-name="Path 73" d="M381.128,366.931s1.1-51.946-13.805-77.769S327.71,250.18,327.71,250.18,337.67,341.754,381.128,366.931Z" transform="translate(333.576 5169.633)" fill="#ce5e3b"/>
    <path id="Path_74" data-name="Path 74" d="M349.179,316.288c6.264,9.013,12.483,17.711,20.174,25.537q-4.507-15.923-10.32-31.321c-8.352-7.331-16.644-14.917-21.767-24.952-.09-.15.15-.285.24-.135,5.513,8.878,12.889,15.983,20.64,22.818A400.263,400.263,0,0,0,337.4,263.05a.33.33,0,0,1,.571-.33,248.64,248.64,0,0,1,13.009,23.72c-1.4-5.558-2.524-11.236-3.951-16.75,0-.15.18-.21.24,0a93.891,93.891,0,0,1,6.129,21.977,264.776,264.776,0,0,1,13.129,35.557c-.391-7.8-.871-15.548-1.682-23.314a.128.128,0,0,1,.255,0,126.444,126.444,0,0,1,2.268,26.168c2.148,7.736,3.951,15.578,5.393,23.464,0,.21-.27.3-.315.09-.811-3.3-1.7-6.595-2.584-9.854a.257.257,0,0,1-.18-.075c-7.992-8.007-15.578-17.14-20.565-27.34C349.074,316.272,349.149,316.227,349.179,316.288Z" transform="translate(338.365 5175.857)" fill="#263238"/>
    <path id="Path_75" data-name="Path 75" d="M333.79,270.21c1.652,1.788,3.17,3.68,4.777,5.528a41.057,41.057,0,0,1,4.3,5,.09.09,0,0,1-.12.12,25.086,25.086,0,0,1-4.957-4.9,42.228,42.228,0,0,1-4.236-5.573.15.15,0,0,1,.24-.18Z" transform="translate(336.493 5179.663)" fill="#263238"/>
    <path id="Path_76" data-name="Path 76" d="M414.284,323.68l-1.878,24.606-5.663,74.389H357.381l-5.663-74.389L349.84,323.68Z" transform="translate(344.689 5206.544)" fill="#455a64"/>
    <path id="Path_77" data-name="Path 77" d="M414.284,323.68l-1.878,24.606H351.718L349.84,323.68Z" transform="translate(344.689 5206.544)" fill="#37474f"/>
    <rect id="Rectangle_25" data-name="Rectangle 25" width="73.217" height="18.868" transform="translate(763.36 5537.015) rotate(180)" fill="#455a64"/>
    <path id="Path_78" data-name="Path 78" d="M117.765,514.741l296.789,1.277c72.106-56.648,79.617-140.561,28.136-191.44-31.156-30.765-70.709-24.561-108.369-29.458h-.105c-13.114-1.712-25.988-4.762-38.2-11.206-38.772-20.46-60.644-68.726-93.257-109.315q-6.1-7.646-12.784-14.812c-26.829-28.647-80.232-29.578-108.158,10.7C10.853,272.8,43.331,425.1,117.765,514.741Z" transform="translate(190.264 5113.878)" fill="#ce5e3b"/>
    <path id="Path_79" data-name="Path 79" d="M117.765,514.741l296.789,1.277c72.106-56.648,79.617-140.561,28.136-191.44-31.156-30.765-70.709-24.561-108.369-29.458h-.105c-13.114-1.712-25.988-4.762-38.2-11.206-38.772-20.46-60.644-68.726-93.257-109.315q-6.1-7.646-12.784-14.812c-26.829-28.647-80.232-29.578-108.158,10.7C10.853,272.8,43.331,425.1,117.765,514.741Z" transform="translate(190.264 5112.881)" fill="#020100" opacity="0.3"/>
    <path id="Path_80" data-name="Path 80" d="M88.323,271.189C96.089,392.957,236.71,438.4,324.544,401.88c76.372-31.711,51.375-104.1-13.084-116.225h-.105c-13.114-1.713-25.988-4.762-38.2-11.206-38.772-20.46-60.644-68.726-93.257-109.315C131.286,139.912,82.615,182.078,88.323,271.189Z" transform="translate(213.126 5123.298)" fill="#020100" opacity="0.3"/>
    <path id="Path_81" data-name="Path 81" d="M284.854,487.7c-4.356-1.607-102.9-80.353-104.763-85.73-.706-2.043,9.915-17.065,23.284-34.836,2.884-3.846,5.889-7.8,9.013-11.792,19.919-25.943,41.656-53.013,41.656-53.013l66.1,52.487-43.564,51.571L267.1,417.714s24.185,47.034,25.537,53.148S289.211,489.294,284.854,487.7Z" transform="translate(259.425 5195.823)" fill="#f7a9a0"/>
    <path id="Path_82" data-name="Path 82" d="M284.854,469.959c-4.356-1.607-102.9-80.353-104.763-85.73-.856-2.494,15.022-24.14,32.237-46.568l64.249,51.075L267.1,399.971s24.185,47.034,25.537,53.148S289.211,471.551,284.854,469.959Z" transform="translate(259.425 5213.566)" fill="#fff"/>
    <path id="Path_83" data-name="Path 83" d="M284.854,466.036c-4.356-1.607-102.9-80.353-104.763-85.73-.706-2.043,9.915-17.065,23.284-34.836L267.1,396.049s24.185,47.034,25.537,53.148S289.211,467.629,284.854,466.036Z" transform="translate(259.425 5217.488)" fill="#ce5e3b"/>
    <path id="Path_84" data-name="Path 84" d="M284.426,448.833c-16.194-13.61-82.8-66.953-99.836-79.181-.135-.09-.21,0-.09.105,15.758,13.835,82.786,66.653,99.7,79.346C284.532,449.374,284.727,449.119,284.426,448.833Z" transform="translate(261.626 5229.613)" fill="#263238"/>
    <path id="Path_85" data-name="Path 85" d="M260.688,410.131a17.036,17.036,0,0,0-13.114-3.876,16.525,16.525,0,0,0-10.726,5.874c-.09.105.09.255.2.165a19.634,19.634,0,0,1,23.479-1.968.135.135,0,0,0,.165-.2Z" transform="translate(287.933 5247.947)" fill="#263238"/>
    <path id="Path_86" data-name="Path 86" d="M249.619,386.195c-6.535-5.363-16.074-9.163-24.5-7.045-.33.09-.21.556,0,.6A116.854,116.854,0,0,1,249,387.111a.552.552,0,0,0,.616-.916Z" transform="translate(281.951 5234.102)" fill="#263238"/>
    <path id="Path_87" data-name="Path 87" d="M251.957,390.235c-6.535-5.378-16.074-9.163-24.5-7.045-.33.09-.21.556.075.6a116.852,116.852,0,0,1,23.885,7.361.541.541,0,0,0,.541-.916Z" transform="translate(283.129 5236.131)" fill="#263238"/>
    <path id="Path_88" data-name="Path 88" d="M254.257,394.275c-6.55-5.378-16.074-9.163-24.5-7.045-.33.09-.21.556.075.6a117.176,117.176,0,0,1,23.885,7.361.541.541,0,0,0,.541-.916Z" transform="translate(284.284 5238.16)" fill="#263238"/>
    <path id="Path_89" data-name="Path 89" d="M256.637,398.315c-6.55-5.378-16.073-9.163-24.5-7.045-.331.09-.21.556.075.6a117.164,117.164,0,0,1,23.885,7.361.541.541,0,0,0,.541-.916Z" transform="translate(285.479 5240.188)" fill="#263238"/>
    <path id="Path_90" data-name="Path 90" d="M199.661,361.987c-7.436-5.9-16.629,5.633-9.178,11.552S207.1,367.905,199.661,361.987Z" transform="translate(263.274 5224.961)" fill="#fff"/>
    <path id="Path_91" data-name="Path 91" d="M266.04,377.5c-1.127-5.453-7.511-6.1-11.882-4.867a44.435,44.435,0,0,0-19.529,12.093.225.225,0,0,0,0,.361,1.037,1.037,0,0,0,.751,1.5c7.316.5,15.022,1.953,22.308.2C262,385.751,267.107,382.657,266.04,377.5Zm-19.333,7.511c-3.605-.165-7.181-.5-10.786-.526a133.164,133.164,0,0,1,11.552-6.82,48.481,48.481,0,0,1,6.009-2.524c3.185-1.037,14.091-1.382,9.013,6.339-2.854,4.311-11.507,3.786-15.788,3.59Z" transform="translate(286.772 5230.865)" fill="#263238"/>
    <path id="Path_92" data-name="Path 92" d="M223.561,378.139c5.047,5.483,12.3,8.593,18.657,12.228a1.036,1.036,0,0,0,1.5-.811c.135,0,.27-.075.24-.255a44.194,44.194,0,0,0-9.494-20.911c-3-3.455-8.608-6.459-12.588-2.554C218.093,369.516,220.617,374.939,223.561,378.139Zm-.976-6.955c0-9.254,8.923-2.9,11-.27a46.177,46.177,0,0,1,3.56,5.423,131.332,131.332,0,0,1,5.813,12.093c-3-1.983-6.159-3.68-9.238-5.558C230.036,380.647,222.54,376.276,222.585,371.184Z" transform="translate(279.468 5226.791)" fill="#263238"/>
    <path id="Path_93" data-name="Path 93" d="M415.433,290.227c-4.507,34.325-89.11,133.41-98.89,144.767l-2.223,2.6-69.972-53.779.8-1.037,61.59-80.683L123,301.012l69.777-54.259s5.663,3.26,17.441,1.5c40.559-6.009,132.013-19.078,153.57-18.222C391.578,231.235,419.594,258.725,415.433,290.227Z" transform="translate(230.771 5159.496)" fill="#37474f"/>
    <path id="Path_94" data-name="Path 94" d="M268.455,258.018a83.564,83.564,0,0,0-6.354,8.157c-2.178,2.854-4.386,5.678-6.565,8.533v.09c.391-.841.766-1.682,1.157-2.509,1.382-2.839,2.479-5.783,4.1-8.5.105-.165-.15-.315-.255-.15-1.667,2.7-3.605,5.258-5.032,8.112-.676,1.337-1.307,2.689-1.908,4.056-.315.751-.646,1.5-.946,2.268-.135.361-.3.721-.406,1.112-.961,1.322-1.923,2.659-2.869,4.011-2.073,3-3.906,6.174-6.009,9.163-.105.15.15.3.255.15,2.133-2.809,4.507-5.408,6.685-8.2s4.281-5.738,6.339-8.668,3.981-5.753,6.009-8.623a83.885,83.885,0,0,0,6.009-8.848.129.129,0,1,0-.21-.15Z" transform="translate(291.207 5173.542)" fill="#263238"/>
    <path id="Path_95" data-name="Path 95" d="M481.871,363.557c-1.607,4.356-80.683,102.63-86.061,104.478-2.043.706-17.02-9.975-34.761-23.389-3.846-2.9-7.781-5.919-11.762-9.013-25.883-19.994-52.877-41.821-52.877-41.821l52.7-65.9,51.435,43.7,11.3,9.569s47.094-24.035,53.223-25.537S483.479,359.2,481.871,363.557Z" transform="translate(317.857 5208.669)" fill="#f7a9a0"/>
    <path id="Path_96" data-name="Path 96" d="M464.209,354.377c-1.607,4.356-80.683,102.63-86.061,104.478-2.494.856-24.035-15.022-46.568-32.387l51.3-64.039,11.3,9.569s47.094-24.035,53.223-25.537S465.817,350.02,464.209,354.377Z" transform="translate(335.519 5217.85)" fill="#fff"/>
    <path id="Path_97" data-name="Path 97" d="M460.262,354.391c-1.607,4.356-80.683,102.63-86.061,104.478-2.043.706-17.02-9.975-34.761-23.389l50.789-63.513s47.094-24.035,53.223-25.537S461.869,350.035,460.262,354.391Z" transform="translate(339.466 5217.835)" fill="#ce5e3b"/>
    <path id="Path_98" data-name="Path 98" d="M443.091,350.529c-13.655,16.149-67.223,82.621-79.5,99.581-.105.135,0,.21.105.075,13.88-15.7,66.908-82.621,79.617-99.446C443.632,350.394,443.376,350.184,443.091,350.529Z" transform="translate(351.575 5219.94)" fill="#263238"/>
    <path id="Path_99" data-name="Path 99" d="M404.29,348.712a16.945,16.945,0,0,0-3.906,13.084,16.524,16.524,0,0,0,5.829,10.756c.105.075.255-.105.165-.2a19.528,19.528,0,0,1-1.878-23.479.135.135,0,0,0-.21-.165Z" transform="translate(370.006 5219.097)" fill="#263238"/>
    <path id="Path_100" data-name="Path 100" d="M380.336,360.081c-5.393,6.52-9.224,16.044-7.12,24.486.075.315.541.2.6-.075a118.139,118.139,0,0,1,7.421-23.87.526.526,0,0,0-.9-.541Z" transform="translate(356.134 5224.704)" fill="#263238"/>
    <path id="Path_101" data-name="Path 101" d="M384.386,357.721c-5.393,6.52-9.224,16.029-7.12,24.471.075.33.541.21.6-.075a115.836,115.836,0,0,1,7.421-23.855.526.526,0,0,0-.9-.541Z" transform="translate(358.168 5223.519)" fill="#263238"/>
    <path id="Path_102" data-name="Path 102" d="M388.439,355.391c-5.408,6.52-9.224,16.043-7.135,24.471.09.33.556.21.6,0a116.933,116.933,0,0,1,7.436-23.87.542.542,0,0,0-.9-.6Z" transform="translate(360.199 5222.349)" fill="#263238"/>
    <path id="Path_103" data-name="Path 103" d="M392.474,353.079c-5.393,6.52-9.208,16.029-7.12,24.471.09.331.541.21.6,0a117.7,117.7,0,0,1,7.421-23.855.546.546,0,0,0-.9-.616Z" transform="translate(362.233 5221.189)" fill="#263238"/>
    <path id="Path_104" data-name="Path 104" d="M355.972,406.509c-6.009,7.406,5.573,16.644,11.522,9.208S361.906,399.073,355.972,406.509Z" transform="translate(346.925 5246.761)" fill="#fff"/>
    <path id="Path_105" data-name="Path 105" d="M371.674,345.847c-5.453,1.112-6.129,7.511-4.912,11.852a44.48,44.48,0,0,0,12.018,19.529.24.24,0,0,0,.361,0,1.022,1.022,0,0,0,1.5-.766c.541-7.3,2.013-15.022.285-22.308C379.906,349.9,376.842,344.8,371.674,345.847Zm7.511,19.363c-.165,3.59-.526,7.165-.556,10.771a133.065,133.065,0,0,1-6.79-11.567,48.566,48.566,0,0,1-2.509-6.009c-1.022-3.185-1.322-14.091,6.369-9.013C379.951,352.261,379.4,360.914,379.185,365.21Z" transform="translate(352.929 5217.607)" fill="#263238"/>
    <path id="Path_106" data-name="Path 106" d="M372.179,385.736c5.5-5.032,8.638-12.273,12.3-18.612a1.051,1.051,0,0,0-.811-1.5c0-.135-.075-.27-.255-.24a44.525,44.525,0,0,0-20.941,9.464c-3.455,2.929-6.474,8.593-2.584,12.573S368.979,388.666,372.179,385.736Zm-6.955.961c-9.239-.09-2.869-9.013-.225-11.011a46.928,46.928,0,0,1,5.438-3.545,133.269,133.269,0,0,1,12.108-5.769c-2,3-3.71,6.159-5.588,9.224C374.718,379.277,370.331,386.743,365.224,386.7Z" transform="translate(348.819 5227.485)" fill="#263238"/>
    <path id="Path_107" data-name="Path 107" d="M497.316,410.241l-54.845,74L257.4,355.816l-17.846-12.378s-5.047,3.395-12.664,7.6c-10.515,5.844-26.048,13.234-39.733,15.247-22.984,3.41-57.624,3-76.988-22.848-16.314-21.812-11.161-50.249-11.161-50.249l25.222-10.846s59.7-49.738,98.364-51.225c16.419-.661,40.334,11.792,62.491,24.8S497.316,410.241,497.316,410.241Z" transform="translate(218.334 5160.047)" fill="#37474f"/>
    <path id="Path_108" data-name="Path 108" d="M210.841,318.842s-5.047,3.395-12.664,7.6c-13.445-16.1-41.911-45.336-42.768-46.373Z" transform="translate(247.047 5184.644)" fill="#263238"/>
    <path id="Path_109" data-name="Path 109" d="M143.253,254.134c-3.575,2.479-7.015,5.107-10.515,7.661s-7.03,4.852-10.32,7.511-6.52,5.753-9.674,8.743c-1.5,1.5-3,2.9-4.507,4.4a39.363,39.363,0,0,0-4.3,4.657c-.12.165.12.346.255.255a49.7,49.7,0,0,0,4.792-3.891l4.987-4.251c3.2-2.719,6.474-5.378,9.674-8.112s6.129-5.693,9.284-8.442,6.925-5.693,10.425-8.472C143.389,254.194,143.329,254.089,143.253,254.134Z" transform="translate(221.183 5171.613)" fill="#263238"/>
    <path id="Path_110" data-name="Path 110" d="M372.091,348.6c-3.56,3.846-6.85,7.977-10.17,12.018s-6.64,8.157-9.93,12.273c-6.58,8.217-13.2,16.389-19.679,24.7-3.545,4.507-7.045,9.163-10.35,13.91-.15.21.2.451.361.27,7.075-7.781,13.52-16.089,20.1-24.291s13.129-16.524,19.529-24.8c3.53-4.507,7.165-9.013,10.41-13.85C372.556,348.645,372.256,348.435,372.091,348.6Z" transform="translate(330.671 5219.03)" fill="#263238"/>
    <path id="Path_111" data-name="Path 111" d="M290.314,373.877c-9.209-7.256-30.149-21.421-39.688-28.226s-18.988-13.52-28.632-20.145c-2.764-1.878-5.558-3.725-8.352-5.573s-5.678-3.56-8.412-5.483c-.15-.12-.3.15-.135.255,2.494,1.8,4.867,3.816,7.331,5.678s4.672,3.575,7.045,5.333c4.627,3.425,9.3,6.775,13.955,10.155q14.181,10.245,28.542,20.174c5.468,3.756,22.293,14.827,27.866,18.387C290.239,374.6,290.614,374.057,290.314,373.877Z" transform="translate(271.962 5201.895)" fill="#263238"/>
    <path id="Path_112" data-name="Path 112" d="M350.3,336.371c-8.517-7.045-27.911-20.6-36.834-27.115s-18.026-13.249-27.04-19.8l-26.964-19.529c-8.7-6.294-17.365-12.694-26.574-18.267a175.748,175.748,0,0,0-15.473-8.382,100.271,100.271,0,0,0-16.028-6.55.15.15,0,0,0-.105.27c4.507,2.539,9.3,4.672,13.88,7.12s9.013,4.957,13.4,7.616c9.133,5.528,17.756,11.822,26.424,18.026,18.026,12.934,35.948,25.928,54.079,38.682,10.14,7.135,30.344,21.887,40.875,28.452C350.224,337.137,350.6,336.627,350.3,336.371Z" transform="translate(270.052 5162.879)" fill="#263238"/>
    <path id="Path_113" data-name="Path 113" d="M163.815,125.8c23.615,17.1,44.9,66.908,38.607,100.978-7.511,40.559-39.553,65.045-69.236,59.607-26.964-4.927-41.791-29.533-34.881-50.2,6.67-19.979,23.254-29.173,24.276-46.3.5-8.187-3.951-21.031-4.882-33.229C115.97,134.585,145.413,112.487,163.815,125.8Z" transform="translate(217.521 5105.145)" fill="#263238"/>
    <path id="Path_114" data-name="Path 114" d="M95.82,233.085A42.062,42.062,0,0,1,99.4,220.9a50.908,50.908,0,0,1,6.384-10.515c2.539-3.215,5-6.5,7.376-9.915a53.931,53.931,0,0,0,6.009-11.116,37.554,37.554,0,0,0,1.878-6.279,28.018,28.018,0,0,0,.27-6.73,122.168,122.168,0,0,0-2.058-13.144,56.544,56.544,0,0,1-1.067-12.979c.165-4.326,1.878-8.517,3.455-12.453a36.127,36.127,0,0,0-4.206,12.348,57.685,57.685,0,0,0,.661,13.249c.616,4.371,1.5,8.7,1.8,12.994a26.634,26.634,0,0,1-.315,6.309,34.821,34.821,0,0,1-1.863,6.009c-3,7.8-8.172,14.226-12.934,20.9a53.087,53.087,0,0,0-6.144,11A40.139,40.139,0,0,0,95.82,233.085Z" transform="translate(217.121 5113.182)" fill="#263238"/>
    <path id="Path_115" data-name="Path 115" d="M150.723,207.123c9.96,19.078,48.07,80.112,69.357,82.621,13.985,1.622,68.8-9.163,77.033-23.194,3.59-6.114-7.331-45.2-14.556-42.9s-51.075,12.528-56.618,11.477-51.075-44.044-67.479-54.229C130.173,163.318,145.375,196.848,150.723,207.123Z" transform="translate(240.227 5132.323)" fill="#f7a9a0"/>
    <path id="Path_116" data-name="Path 116" d="M164.006,232.142l19.859-33.048s-20.054-16.224-33.048-22.8c-7.271-3.68-11.792.24-9.764,7.316C148.173,208.438,164.006,232.142,164.006,232.142Z" transform="translate(239.592 5131.819)" fill="#c7c7c7"/>
    <path id="Path_117" data-name="Path 117" d="M178.78,206.7,164.029,231.19s-15.848-23.75-22.969-48.551a8.683,8.683,0,0,1,0-5.859Z" transform="translate(239.585 5132.772)" fill="#a6a6a6"/>
    <path id="Path_118" data-name="Path 118" d="M167.026,200.184l-2.839,4.7-.09-.045-2.869,1.217.27-3.11-2.058-2.358,3.049-.706,1.607-2.674,1.622,2.674Z" transform="translate(249.071 5143.032)" fill="#fff"/>
    <path id="Path_119" data-name="Path 119" d="M153.6,181.89l1.622,2.674,3.034.706-2.043,2.358.27,3.11-2.884-1.217-2.869,1.217.27-3.11-2.058-2.358,3.049-.706Z" transform="translate(243.798 5135.338)" fill="#fff"/>
    <path id="Path_120" data-name="Path 120" d="M170.3,189.927a246.944,246.944,0,0,0-16.194,27.04s.18.18.21.12c4.837-7.135,13.43-22.022,16.284-27.04C170.649,190.048,170.364,189.837,170.3,189.927Z" transform="translate(246.394 5139.363)" fill="#263238"/>
    <path id="Path_121" data-name="Path 121" d="M98.75,321.576,210.5,293.034l-11.026-40.349s8.848-12.664,5.092-24.726c-3.35-10.756-28.842-42.753-33.995-47.019-8.818-7.316-24.606-9.764-33.244.436C101.694,223.377,98.75,321.576,98.75,321.576Z" transform="translate(218.592 5131.661)" fill="#c7c7c7"/>
    <path id="Path_122" data-name="Path 122" d="M131.222,204.9l1.622,2.674,3,.706-2.013,2.313.27,3.11-2.884-1.217-2.869,1.217.27-3.11-2.043-2.358,3-.706Zm29.954,2.689-3,.706,2.058,2.358-.27,3.11,2.869-1.217,2.884,1.217-.285-3.11,2.058-2.358-3-.706-1.607-2.674Zm35.8,3.365c-1.052-1.592-2.178-3.23-3.335-4.882l-.916,1.5-3,.706,2.058,2.359-.27,3.11,2.869-1.217,2.884,1.217Zm-51.525-26.394-3,.706,2.043,2.358-.27,3.11,2.734-1.172,2.869,1.217-.27-3.11,2.058-2.358-3-.706-1.652-2.719Zm35.933,5.2c-1.5-1.908-3-3.7-4.341-5.288v.09l-3,.706,2.043,2.358-.27,3.11,2.689-1.172,2.869,1.217ZM129.66,254.446l-3,.706,2.043,2.358-.27,3.11L131.3,259.4l2.884,1.217-.27-3.11,2.043-2.358-3-.706-1.622-2.674Zm31.546,0-3,.706,2.058,2.358-.27,3.11,2.869-1.217,2.884,1.217-.285-3.11,2.058-2.358-3-.706-1.607-2.674Zm31.546,0-3,.706,2.043,2.358-.27,3.11L194.4,259.4l2.869,1.217-.27-3.11,2.043-2.358-3-.706-1.607-2.674ZM113.9,231.432l-3,.706,2.058,2.358-.27,3.11,2.869-1.217,2.854,1.247-.27-3.11,2.043-2.358-3-.706-1.773-2.7Zm31.546,0-3,.706,2.043,2.358-.27,3.11,2.884-1.217,2.854,1.247-.27-3.11,2.058-2.358-3-.706-1.788-2.7Zm31.546,0-3,.706,2.058,2.358-.27,3.11,2.869-1.217,2.854,1.247-.27-3.11,2.043-2.358-3-.706-1.773-2.7Zm-72.631,70.6-3-.691-1.5-2.509c-.24,2.824-.451,5.393-.616,7.676l.511-.225,2.884,1.232-.27-3.125Zm25.3-.691-3,.691,2.043,2.358-.27,3.125,2.869-1.232,2.884,1.232-.27-3.125,2.043-2.358-3-.691-1.622-2.689Zm33.169-2.689-1.622,2.689-3,.691.466.541,5.663-1.5ZM113.9,278.286l-3,.706,2.058,2.358-.27,3.125,2.869-1.232,2.884,1.232-.27-3.125,2.043-2.358-3-.706-1.8-2.674Zm31.546,0-3,.706,2.043,2.358-.27,3.125,2.884-1.232,2.869,1.232-.27-3.125,2.058-2.358-3-.706-1.8-2.674Zm31.546,0-3,.706,2.058,2.358-.27,3.125,2.869-1.232,2.884,1.232-.27-3.125,2.043-2.358-3-.706-1.8-2.674Zm31.8,5.543-1.5-5.273-1.848.436,2.043,2.358-.27,3.125Z" transform="translate(218.838 5135.338)" fill="#fff"/>
    <path id="Path_123" data-name="Path 123" d="M164.51,223a108.509,108.509,0,0,0-14.812,6.7c-2.359,1.322-4.627,2.749-6.88,4.221-1.127.736-2.268,1.5-3.41,2.133a18.026,18.026,0,0,1-3.8,1.818c-.12,0,0,.21,0,.18a28.334,28.334,0,0,0,3.816-1.1,29.652,29.652,0,0,0,3.485-1.667c2.4-1.322,4.732-2.749,7.12-4.1,4.807-2.7,9.614-5.423,14.6-7.781C164.916,223.345,164.766,223,164.51,223Z" transform="translate(237.075 5155.983)" fill="#263238"/>
    <path id="Path_124" data-name="Path 124" d="M172.843,223.8a122.905,122.905,0,0,0-13.114,2.854c-2.148.6-4.251,1.337-6.354,2.118-1.006.376-2,.766-3,1.172s-2.118,1.037-3.215,1.5c-.105,0,0,.225,0,.18,1.037-.376,2.148-.571,3.215-.886l3.215-.946c2.133-.631,4.281-1.247,6.414-1.893,4.281-1.307,8.548-2.554,12.874-3.71C173.189,224.1,173.069,223.771,172.843,223.8Z" transform="translate(242.878 5156.384)" fill="#263238"/>
    <path id="Path_125" data-name="Path 125" d="M216.408,271.258c-5.348-4.507,8.217-46.568,15.022-49.032,1.262-.466,3.125-1.1,7.18-2.9h0s14.692-6.339,25.057-15.953c8.713-8.052,20.73-21.031,25.237-16.524,6.595,6.58-6.64,24.8-14.857,34.791,6.925,1.232,12.769,3,15.818,5.183,10.11,7.511-17.441,56.8-30.209,57.309C247.218,284.643,221.68,275.78,216.408,271.258Z" transform="translate(277.067 5137.363)" fill="#f7a9a0"/>
    <path id="Path_126" data-name="Path 126" d="M235.073,250.83c-.511-3.74-3.921-21.842-18.342-23.089-18.026-1.5-23.69,11.161-32.733,15.7-17.726,8.908-53.914-8.728-80.969,11.146s-19.048,55.341-8.608,76.131,33.574,49.573,61.59,42.377c27.235-6.925,32.7-30.99,45.982-39.823,12.123-8.052,50.654-13.64,53.328-30.374,1.788-11.161-10.26-8.623-14.046-13.835-3.575-4.942.646-10.515,1.037-13.355C243.215,269.322,235.073,250.83,235.073,250.83Z" transform="translate(211.518 5158.303)" fill="#ce5e3b"/>
    <path id="Path_127" data-name="Path 127" d="M146.233,286.129l16.689-9.254s8.232,5.123,16.96,1.187,9.9-13.715,9.9-13.715l3.876-1.7a18.237,18.237,0,0,1,3.17,9.689c.541,11.251-19.033,39.613-38.607,35.016C142.884,303.735,146.233,286.129,146.233,286.129Z" transform="translate(242.283 5175.896)" opacity="0.1"/>
    <path id="Path_128" data-name="Path 128" d="M187.381,264.393a18.026,18.026,0,1,1-8.111-11.2A18.026,18.026,0,0,1,187.381,264.393Z" transform="translate(245.24 5169.812)" fill="#ce5e3b"/>
    <path id="Path_129" data-name="Path 129" d="M187.381,264.393a18.026,18.026,0,1,1-8.111-11.2A18.026,18.026,0,0,1,187.381,264.393Z" transform="translate(245.24 5169.812)" opacity="0.3"/>
    <circle id="Ellipse_2" data-name="Ellipse 2" cx="13.768" cy="13.768" r="13.768" transform="matrix(0.517, -0.856, 0.856, 0.517, 398.464, 5442.668)" fill="#263238"/>
    <path id="Path_130" data-name="Path 130" d="M344.209,196.48l6.369,12.664L179,301.514,167.49,278.62Z" transform="translate(253.113 5142.666)" fill="#c7c7c7"/>
    <rect id="Rectangle_26" data-name="Rectangle 26" width="29.698" height="7.841" transform="matrix(0.449, 0.894, -0.894, 0.449, 365.139, 5446.156)" fill="#fff"/>
    <rect id="Rectangle_27" data-name="Rectangle 27" width="2.163" height="5.783" transform="matrix(-0.877, 0.481, -0.481, -0.877, 605.882, 5328.622)" fill="#263238"/>
    <rect id="Rectangle_28" data-name="Rectangle 28" width="4.311" height="7.211" transform="matrix(0.481, 0.877, -0.877, 0.481, 604.313, 5320.421)" fill="#263238"/>
    <rect id="Rectangle_29" data-name="Rectangle 29" width="2.163" height="5.783" transform="matrix(-0.877, 0.481, -0.481, -0.877, 615.064, 5323.635)" fill="#263238"/>
    <rect id="Rectangle_30" data-name="Rectangle 30" width="4.311" height="7.211" transform="matrix(0.481, 0.877, -0.877, 0.481, 613.47, 5315.429)" fill="#263238"/>
    <rect id="Rectangle_31" data-name="Rectangle 31" width="2.163" height="5.783" transform="matrix(-0.877, 0.481, -0.481, -0.877, 624.268, 5318.647)" fill="#263238"/>
    <rect id="Rectangle_32" data-name="Rectangle 32" width="4.311" height="7.211" transform="matrix(0.481, 0.877, -0.877, 0.481, 622.648, 5310.432)" fill="#263238"/>
    <rect id="Rectangle_33" data-name="Rectangle 33" width="2.163" height="5.783" transform="translate(617.797 5357.212) rotate(161.66)" fill="#263238"/>
    <rect id="Rectangle_34" data-name="Rectangle 34" width="4.311" height="7.211" transform="translate(614.07 5360.746) rotate(-108.34)" fill="#263238"/>
    <rect id="Rectangle_35" data-name="Rectangle 35" width="2.163" height="5.783" transform="translate(627.687 5353.928) rotate(161.66)" fill="#263238"/>
    <rect id="Rectangle_36" data-name="Rectangle 36" width="4.311" height="7.211" transform="translate(623.948 5357.412) rotate(-108.34)" fill="#263238"/>
    <rect id="Rectangle_37" data-name="Rectangle 37" width="2.163" height="5.783" transform="translate(637.602 5350.6) rotate(161.66)" fill="#263238"/>
    <rect id="Rectangle_38" data-name="Rectangle 38" width="4.311" height="7.211" transform="translate(633.891 5354.112) rotate(-108.34)" fill="#263238"/>
    <path id="Path_131" data-name="Path 131" d="M334.629,198.611l-6.234-14.271s-4.807,1.352-11.447-3.831l-29.1,15.172-3.8,6.384,7.406,16.975,7.256,1.577,30.915-11.026C330.363,201.225,334.629,198.611,334.629,198.611Zm-41.356,5.663-1.5-3.425,27.475-12.018,1.5,3.425Zm4.326,9.945-1.5-3.455,27.49-12.018,1.5,3.44Z" transform="translate(311.65 5134.645)" fill="#ce5e3b"/>
    <path id="Path_132" data-name="Path 132" d="M127,313.963l29.894-14.421,30.044-14.271,59.953-28.542,60.088-28.241c20.039-9.4,40.049-18.853,60.088-28.106h0L371.8,188.86l-4.507,11.582h0c-19.919,9.659-39.928,19.123-59.908,28.647l-60.208,28.632-60.088,28.211-30.044,14.091Z" transform="translate(232.779 5138.838)" fill="#263238"/>
    <path id="Path_133" data-name="Path 133" d="M128.34,319.651l29.939-14.691,30.044-14.541,60.088-29.068c20.009-9.689,40.109-19.2,60.088-28.8s40.094-19.243,60.223-28.677h0l11.056-18.026L368.9,204.1h0c-19.934,9.824-40,19.408-60,29.143s-39.989,19.423-60.088,29.007L188.638,291l-30.044,14.361Z" transform="translate(233.452 5137.327)" fill="#263238"/>
    <path id="Path_134" data-name="Path 134" d="M390.136,182.81l-20.475,24.4h0l-59.878,29.668c-19.979,9.854-39.9,19.844-59.938,29.578L189.758,295.79l-30.044,14.661L129.67,324.978l29.879-15.022,29.939-14.842,59.893-29.653c19.934-9.915,40-19.529,60-29.413l60.088-29.308h-.075Z" transform="translate(234.12 5135.8)" fill="#263238"/>
    <path id="Path_135" data-name="Path 135" d="M131,320.677l29.789-15.307,29.864-15.2,59.727-30.329c19.9-10.155,39.913-20.054,59.863-30.044L370.15,199.75h0l30.044,1.322L370.15,200.2h.105L310.543,230.56c-19.934,10.08-39.793,20.295-59.773,30.269l-59.893,30.044L160.924,305.9Z" transform="translate(234.788 5144.308)" fill="#263238"/>
    <path id="Path_136" data-name="Path 136" d="M389.837,204.54l-20.82-3h.15c-19.634,10.41-39.388,20.565-59.066,30.87l-59.127,30.75L191.712,293.65l-29.638,15.232-29.713,15.1,29.5-15.638,29.548-15.428,59.081-30.8,59.232-30.54c19.769-10.14,39.478-20.4,59.307-30.42h0Z" transform="translate(235.471 5145.015)" fill="#263238"/>
    <path id="Path_137" data-name="Path 137" d="M133.68,326.811l29.233-15.653,29.308-15.518,58.586-30.99,58.781-30.72c19.6-10.215,39.192-20.49,58.871-30.57h.075l11.161,4.371L368.5,203.54h.09c-19.529,10.515-39.057,20.775-58.586,31.111l-58.676,30.96-58.811,30.675-29.368,15.337Z" transform="translate(236.134 5146.121)" fill="#263238"/>
    <path id="Path_138" data-name="Path 138" d="M262.472,208.176c-5.453,3.59,1.908,7.962,1.908,7.962s-12.093-3.74-16.284,2.133,5.047,10.636,5.693,11.011c-.646-.2-11.852-3.335-15.443,3-3.74,6.58,6.219,10,6.865,10.215-.661,0-9.434.285-11.071,5.708-2.809,9.344,19.619,9.284,24.982,15.022,0,0-8.788,10.215-9.013,10.515,0,0,21.331.376,28.752-7.286a6.82,6.82,0,0,0,.916-8.487s6.865.871,9.854-4.026c1.5-2.524-1.142-7.211-1.142-7.211s5.513.481,7.9-4.041c1.923-3.605-1.052-7.751-1.052-7.751s5.513-2,6.279-6.324C303.152,220.028,274.145,200.5,262.472,208.176Z" transform="translate(286.464 5147.659)" fill="#f7a9a0"/>
    <path id="Path_139" data-name="Path 139" d="M285.086,231.177a.1.1,0,0,0,.135-.135c-7.992-8.743-19.529-15.923-31.126-18.342-.376,0-.676.511-.27.676a124.459,124.459,0,0,1,31.261,17.8Z" transform="translate(296.373 5150.811)" fill="#263238"/>
    <path id="Path_140" data-name="Path 140" d="M282.313,239.411c.105.09.24-.09.15-.2-8.277-9.013-21.421-16.7-35.2-17.906-.481,0-.946.406-.406.5C255.979,223.293,273.5,232.321,282.313,239.411Z" transform="translate(292.852 5155.134)" fill="#263238"/>
    <path id="Path_141" data-name="Path 141" d="M240.827,230.8c13.174,1.652,24.486,7.376,35.257,14.917.15.105.27-.105.18-.225-4.266-5.123-11.642-9.209-17.651-11.912a35.107,35.107,0,0,0-17.726-3.245C240.647,230.351,240.542,230.757,240.827,230.8Z" transform="translate(289.857 5159.613)" fill="#263238"/>
    <path id="Path_142" data-name="Path 142" d="M264.583,213.237c-.466-.09-.09.691-.556.6-1.953-.33-13.835-1.352-15.443,2.584-1.277,3.17,2.088,7.075,3.966,8.067L257.282,227l-5.318-.706a21.6,21.6,0,0,0-7.09.15,7.811,7.811,0,0,0-5.468,3.335,4.507,4.507,0,0,0,.511,5.6,13.52,13.52,0,0,0,5.859,3.41l6.009,1.923-6.309.165a20.462,20.462,0,0,0-5.2.8,8.367,8.367,0,0,0-4.206,2.494,4,4,0,0,0-.616,4.191,9.013,9.013,0,0,0,3.71,3.335,70.874,70.874,0,0,0,10.2,4.1c1.743.616,3.5,1.232,5.228,1.938a13.521,13.521,0,0,1,4.777,2.869,14.648,14.648,0,0,0-4.942-2.388c-1.758-.556-3.545-1.037-5.348-1.5a60.977,60.977,0,0,1-10.636-3.65,10.515,10.515,0,0,1-4.507-3.846,5.738,5.738,0,0,1,.676-6.234,10.365,10.365,0,0,1,5.137-3.23,21.992,21.992,0,0,1,5.768-.976l-.27,2.073a15.442,15.442,0,0,1-6.955-3.951,6.519,6.519,0,0,1-1.8-4.011A7.316,7.316,0,0,1,237.6,228.7a9.839,9.839,0,0,1,6.91-4.236,23.826,23.826,0,0,1,7.8,0l-.586,1.788c-2.343-1.352-6.58-5.3-5.213-10.515C249.275,209.287,262.255,212.486,264.583,213.237Z" transform="translate(286.171 5150.349)" fill="#263238"/>
    <path id="Path_143" data-name="Path 143" d="M255.778,216.172a13.218,13.218,0,0,1-2.539-3.095,3,3,0,0,1-.09-3,6.144,6.144,0,0,1,2.809-2.1c1.217-.511,2.509-.991,3.861-1.427a10.516,10.516,0,0,0-4.311.075,6.129,6.129,0,0,0-3.936,2.524,4.417,4.417,0,0,0-.526,2.539,4.627,4.627,0,0,0,1.006,2.253,7.106,7.106,0,0,0,3.725,2.238Z" transform="translate(295.066 5147.625)" fill="#263238"/>
    <path id="Path_144" data-name="Path 144" d="M105.207,269.991s-5.017-10.41,2.358-13.264,10.666,8.247,10.666,8.247Z" transform="translate(220.998 5172.686)" fill="#dbdbdb"/>
    <path id="Path_145" data-name="Path 145" d="M146.827,337.621h0l-1.292,11.236-.391,3.71-2.839-2.449-8.5-7.511h0L104.54,266.777l13.024-5.017,29.248,75.846Z" transform="translate(221.5 5175.449)" fill="#dbdbdb"/>
    <path id="Path_146" data-name="Path 146" d="M132.925,319.75l-.421,3.71L129.68,321Z" transform="translate(234.125 5204.571)" fill="#455a64"/>
    <rect id="Rectangle_39" data-name="Rectangle 39" width="16.284" height="3.23" transform="translate(324.808 5442.246) rotate(-21.1)" fill="#263238"/>
    <rect id="Rectangle_40" data-name="Rectangle 40" width="16.284" height="3.23" transform="translate(326.089 5445.588) rotate(-21.1)" fill="#263238"/>
    <path id="Path_147" data-name="Path 147" d="M105.34,269.983l4.912-1.893,7.887,28.482-1.848.586Z" transform="translate(221.902 5178.627)" fill="#263238"/>
    <path id="Path_148" data-name="Path 148" d="M145.931,182.713C101.6,205.366,58.217,234.4,51.8,254.818c-3.38,10.651,15.518,76.222,29.353,92.641,4.507,5.288,48.521-35.963,44.826-42.377-8.127-14.076-19.6-44.886-21.5-48.4-.9-1.7,37.675-35.347,56.077-57.91C171.979,184.771,173.3,168.727,145.931,182.713Z" transform="translate(194.816 5133.043)" fill="#f7a9a0"/>
    <path id="Path_149" data-name="Path 149" d="M158.128,336.921c-6.009,2.764-11.567-12.664-11.567-12.664a12.3,12.3,0,0,1-4.026,7.286c-3.936,3.125-10.515-1.667-10.515-1.667a15.022,15.022,0,0,1-5.453,6.985c-4.071,2.629-11.462-1.262-11.462-1.262a13.219,13.219,0,0,1-8.683,3.125c-8.472-.421-29.7-22.818-39.192-44.345L116.953,261s33.319,23.3,36.924,32.387C156.926,301.079,167.322,332.7,158.128,336.921Z" transform="translate(202.763 5175.067)" fill="#f7a9a0"/>
    <path id="Path_150" data-name="Path 150" d="M122.9,311.649c-1.262-8.923-4.672-17.516-8.052-25.778a.155.155,0,0,0-.285.12c3.455,8.172,4.807,17.471,7.932,25.763a.21.21,0,0,0,.406-.105Z" transform="translate(226.528 5187.51)" fill="#263238"/>
    <path id="Path_151" data-name="Path 151" d="M114.543,314.267a23.375,23.375,0,0,0-2.208-5.738q-1.4-3-2.884-5.859-3-5.844-6.219-11.507c-.09-.165-.376,0-.285.12,1.968,3.876,3.876,7.781,5.678,11.732.9,1.983,1.788,3.966,2.659,6.009A26.874,26.874,0,0,0,114,314.537a.3.3,0,0,0,.541-.27Z" transform="translate(220.691 5190.181)" fill="#263238"/>
    <path id="Path_152" data-name="Path 152" d="M102.592,317.576a16.209,16.209,0,0,0-2.268-5.047c-.931-1.758-1.863-3.515-2.779-5.273-1.848-3.515-3.68-7.045-5.393-10.621-.09-.18-.376,0-.285.12,1.728,3.65,3.395,7.316,5.153,10.951.856,1.788,1.728,3.56,2.614,5.348a15.606,15.606,0,0,0,2.794,4.627.105.105,0,0,0,.165-.105Z" transform="translate(215.126 5192.925)" fill="#263238"/>
    <path id="Path_153" data-name="Path 153" d="M93.69,195.57l31.351,22.458s17.786-18.672,25.387-31.081c4.266-6.955.721-11.777-6.5-10.32C118.642,181.7,93.69,195.57,93.69,195.57Z" transform="translate(216.051 5132.564)" fill="#c7c7c7"/>
    <path id="Path_154" data-name="Path 154" d="M122.668,208.284l2.6-.6-1.5,1.773Zm4.657-3.38-.841,1.4.991-1.142ZM110,184.564l-3,.706,2.058,2.358-.27,3.11,2.719-1.172,2.884,1.217-.27-3.11,2.043-2.358-3-.706-1.652-2.719Zm33.048-2.674-1.5,2.674-3,.706,2.058,2.358-.135,1.592c1.247-1.758,2.4-3.455,3.38-5.047l.361-.616Z" transform="translate(222.735 5135.338)" fill="#fff"/>
    <path id="Path_155" data-name="Path 155" d="M124.64,205.837A245.76,245.76,0,0,0,98.952,187.51s-.2.15-.15.2c6.73,5.393,20.866,15.172,25.628,18.417C124.535,206.182,124.745,205.912,124.64,205.837Z" transform="translate(218.615 5138.16)" fill="#263238"/>
    <path id="Path_156" data-name="Path 156" d="M113.439,209.258a9.886,9.886,0,0,0,1.652,1.112,26.92,26.92,0,0,0,3-3.125c1.5-1.833,3.095-3.62,4.642-5.438,3-3.62,6.339-7.03,9.554-10.515a.113.113,0,0,1,.18.135c-1.382,1.878-2.779,3.74-4.221,5.573l.12-.105,2.449-2.118s.165,0,.09.105l-2.343,2.208-1.322,1.187c-1.5,1.893-3,3.771-4.687,5.588s-6.55,7.511-7.331,7.421c-.24,0-1.352-1.307-1.938-1.758C113.153,209.394,113.289,209.153,113.439,209.258Z" transform="translate(225.866 5140.042)" fill="#263238"/>
    <path id="Path_157" data-name="Path 157" d="M132.451,194.386c1.082,1.818,14.541,11.552,23.389,8.247,2.869-1.067-2.313-17.035-2.313-17.035l-.045-1.337-1.607-17.726L128.455,160.3l-3.335-.751s.751,4.822,1.758,10.816a4.46,4.46,0,0,0,.15.856c.06.3.09.661.15.976.135.9.27,1.818.436,2.719s.24,1.367.391,2.088.285,1.5.421,2.163a114.96,114.96,0,0,0,4.026,15.217Z" transform="translate(231.835 5124.119)" fill="#f7a9a0"/>
    <path id="Path_158" data-name="Path 158" d="M152.746,176.74c-8.923,8.367-22.608,6.429-23.509,6.294-.3-1.262-.586-2.554-.856-3.831-.135-.751-.285-1.5-.421-2.163s-.27-1.4-.376-2.1-.33-1.833-.466-2.719l-.135-.976a5.368,5.368,0,0,0-.15-.856c-1.006-6.009-1.773-10.816-1.773-10.816l3.35.751,23.419,6.249Z" transform="translate(231.805 5124.129)" fill="#263238"/>
    <path id="Path_159" data-name="Path 159" d="M109.343,171.249c7.511,30.3,26.559,29.188,33.048,27.55,6.009-1.5,25.943-7.3,21.542-38.231s-20.836-37.014-34.506-34.385S101.772,140.9,109.343,171.249Z" transform="translate(222.841 5107.087)" fill="#f7a9a0"/>
    <path id="Path_160" data-name="Path 160" d="M115.48,155.527c.676-.3,1.247-.676,1.893-1.037a3.44,3.44,0,0,0,1.728-1.427,1.1,1.1,0,0,0-.391-1.292,2.719,2.719,0,0,0-2.779.165,3.966,3.966,0,0,0-2.028,2.1,1.187,1.187,0,0,0,1.577,1.487Z" transform="translate(226.168 5120.06)" fill="#263238"/>
    <path id="Path_161" data-name="Path 161" d="M129.948,151.123a17.5,17.5,0,0,1-2.148.18,3.47,3.47,0,0,1-2.238-.24,1.1,1.1,0,0,1-.376-1.292,2.719,2.719,0,0,1,2.4-1.4,4.071,4.071,0,0,1,2.854.646,1.172,1.172,0,0,1-.5,2.1Z" transform="translate(231.829 5118.485)" fill="#263238"/>
    <path id="Path_162" data-name="Path 162" d="M126.45,155.452c0-.09.18,0,.2.135.511,2.073,1.5,4.356,3.47,4.507,0,0,.075.12,0,.12C127.772,160.53,126.585,157.5,126.45,155.452Z" transform="translate(232.503 5122.042)" fill="#263238"/>
    <path id="Path_163" data-name="Path 163" d="M127.694,153.726c3.23-1.157,5.318,5.378,2.313,6.459S124.991,154.687,127.694,153.726Z" transform="translate(232.49 5121.125)" fill="#263238"/>
    <path id="Path_164" data-name="Path 164" d="M128.295,154.11c.691.18,1.5.661,2.163.511s1.217-1.052,1.5-1.878c0-.09.105,0,.135,0a2.539,2.539,0,0,1-.946,3.3c-1.172.556-2.4-.285-3.125-1.5C127.994,154.441,127.994,154.035,128.295,154.11Z" transform="translate(233.287 5120.681)" fill="#263238"/>
    <path id="Path_165" data-name="Path 165" d="M118.746,157.51s-.135.135-.105.225c.721,2,1.217,4.416-.391,5.678v.105C120.428,162.482,119.737,159.283,118.746,157.51Z" transform="translate(228.385 5123.095)" fill="#263238"/>
    <path id="Path_166" data-name="Path 166" d="M117.5,156.509c-3.32.811-1.5,7.421,1.637,6.67S120.3,155.773,117.5,156.509Z" transform="translate(227.121 5122.563)" fill="#263238"/>
    <path id="Path_167" data-name="Path 167" d="M117.271,157.011c-.421.5-.766,1.277-1.367,1.5s-1.5-.315-2.1-.871a.088.088,0,0,0-.09.105c.33,1.277,1.112,2.464,2.4,2.358s1.667-1.4,1.622-2.734C117.721,157.177,117.436,156.876,117.271,157.011Z" transform="translate(226.105 5122.827)" fill="#263238"/>
    <path id="Path_168" data-name="Path 168" d="M130.753,167c-.3.646-.541,1.5-1.247,1.788a5.558,5.558,0,0,1-2.328.285s-.12.09,0,.135a2.809,2.809,0,0,0,3,.15,2.253,2.253,0,0,0,.916-2.343A3.444,3.444,0,0,0,130.753,167Z" transform="translate(232.842 5127.86)" fill="#263238"/>
    <path id="Path_169" data-name="Path 169" d="M124.194,170.556s.5,3.17.931,4.6c0,.135.421.09.9,0h0a7.105,7.105,0,0,0,5.844-4.507.151.151,0,1,0-.27-.135,10.8,10.8,0,0,1-5.678,3.68c-.225-.376-.691-5.453-.916-5.408a12.558,12.558,0,0,0-3,1.728c-1.247-6.565-1.5-13.279-2.749-19.8a.21.21,0,0,0-.406,0c-.315,7.045.946,14.631,2.058,21.436C121.07,172.944,123.7,170.976,124.194,170.556Z" transform="translate(228.66 5119.603)" fill="#263238"/>
    <path id="Path_170" data-name="Path 170" d="M165.023,163.824c-5.288,2.914-11.792-7.766-11.792-7.766s-20.805,5.663-30.51-12.844c0,0-3.245,19.228-13.88,24.982,0,0-8.142-24.906,7-35.707,0,0,18.372-14.752,36.654-2.884S168.568,161.856,165.023,163.824Z" transform="translate(222.562 5106.761)" fill="#263238"/>
    <path id="Path_171" data-name="Path 171" d="M116.96,136.19a22.834,22.834,0,0,0,4.507,8.4,23.42,23.42,0,0,0,7.511,6.009,21.041,21.041,0,0,0,2.238.976l1.142.451,1.172.315c.781.18,1.5.406,2.358.571l2.4.285c.406,0,.8.09,1.2.105H143.1c1.592-.18,3.185-.436,4.732-.706H143.1l-2.343-.18-1.172-.09a6.248,6.248,0,0,1-1.157-.21l-2.283-.421c-.751-.18-1.5-.421-2.223-.646l-1.112-.315-1.067-.451a20.312,20.312,0,0,1-2.1-.931,27.041,27.041,0,0,1-7.406-5.483,30.465,30.465,0,0,1-5.393-7.646Z" transform="translate(227.677 5112.388)" fill="#263238"/>
    <path id="Path_172" data-name="Path 172" d="M164.445,164.1c.165,4.416,2.734-17.771,1.818-20.715s-10.756-15.878-24.921-18.522c-11.867-2.223-23.645,5.017-25.7,6.309a18.7,18.7,0,0,0-5.528,5.047s15.187-9.013,30.615-8.848C148.161,127.445,163.829,147.514,164.445,164.1Z" transform="translate(224.297 5106.487)" fill="#ce5e3b"/>
    <path id="Path_173" data-name="Path 173" d="M138.946,125.562s-5.753-7.887-14.226-8.172c0,0,.976,8.307,4.146,10.816,1.5,1.262,8.217,1.307,8.893.15A14.509,14.509,0,0,0,138.946,125.562Z" transform="translate(231.634 5102.946)" fill="#ce5e3b"/>
    <path id="Path_174" data-name="Path 174" d="M130.69,127.3a11.192,11.192,0,0,0,3.47-.361l.21-.09.165-.09.165-.105a.662.662,0,0,0,.135-.165,12.019,12.019,0,0,0,.991-2.223c.105-.285.18-.5.2-.556h0a19.529,19.529,0,0,0-2.328-2.569,5.663,5.663,0,0,0-2.328,2.509,20.022,20.022,0,0,0-.676,3.65Z" transform="translate(234.632 5104.829)" fill="#050400" opacity="0.1"/>
    <path id="Path_175" data-name="Path 175" d="M136.045,123.953s11.567-2.719,17.4-.616c0,0-2.584,6.339-8.337,8.307-2.569.886-10.636-3.29-10.32-4.7a11.567,11.567,0,0,1,1.262-2.989Z" transform="translate(236.683 5105.532)" fill="#ce5e3b"/>
    <path id="Path_176" data-name="Path 176" d="M134.814,126.931a6.279,6.279,0,0,0,2.539,2.133,5.558,5.558,0,0,0,1.427-2.043,6.956,6.956,0,0,0-.075-3.891c-1.622.285-2.659.541-2.659.541a11.356,11.356,0,0,0-1.262,3,.36.36,0,0,0,0,.18A.15.15,0,0,0,134.814,126.931Z" transform="translate(236.683 5105.829)" fill="#050400" opacity="0.1"/>
    <path id="Path_177" data-name="Path 177" d="M139.049,126.986a3.861,3.861,0,1,1-2.043-5.062A3.861,3.861,0,0,1,139.049,126.986Z" transform="translate(235.106 5105.068)" fill="#ce5e3b"/>
    <path id="Path_178" data-name="Path 178" d="M142.18,154.753s3.275-11.432,8.262-10.515,4.717,15.893.436,19.408a5.288,5.288,0,0,1-7.616-.376Z" transform="translate(240.403 5116.403)" fill="#f7a9a0"/>
    <path id="Path_179" data-name="Path 179" d="M149.21,147.05c.075,0,.12,0,0,.12-3,2.584-3.68,6.4-3.8,10.14a2.9,2.9,0,0,1,3.861-2.163c.12,0,.075.2,0,.21a3.23,3.23,0,0,0-3,2.238,15.021,15.021,0,0,0-.691,3.29c0,.361-.661.391-.661,0v-.09C143.336,156.424,144.643,149.108,149.21,147.05Z" transform="translate(241.454 5117.841)" fill="#263238"/>
    <path id="Path_180" data-name="Path 180" d="M201.039,118.289a7.12,7.12,0,1,1-1.1-5.343,7.12,7.12,0,0,1,1.1,5.343Z" transform="translate(262.873 5099.147)" fill="#455a64"/>
    <rect id="Rectangle_41" data-name="Rectangle 41" width="5.438" height="35.827" transform="translate(465.265 5181.165) rotate(10.77)" fill="#455a64"/>
    <path id="Path_181" data-name="Path 181" d="M217.419,114.379a7.12,7.12,0,1,1-5.678-8.337A7.12,7.12,0,0,1,217.419,114.379Z" transform="translate(271.099 5097.185)" fill="#455a64"/>
    <rect id="Rectangle_42" data-name="Rectangle 42" width="5.438" height="35.827" transform="translate(489.86 5175.288) rotate(10.77)" fill="#455a64"/>
    <path id="Path_182" data-name="Path 182" d="M227.47,89.682l-30.84,9.494.9-4.7,30.825-9.494Z" transform="translate(267.747 5086.67)" fill="#455a64"/>
    <path id="Path_183" data-name="Path 183" d="M226.335,95.6l-30.825,9.479.886-4.7,30.84-9.494Z" transform="translate(267.185 5089.633)" fill="#455a64"/>
    <path id="Path_184" data-name="Path 184" d="M200.468,197.105a3.966,3.966,0,1,1-.615-2.975,3.966,3.966,0,0,1,.615,2.975Z" transform="translate(265.727 5140.613)" fill="#455a64"/>
    <rect id="Rectangle_43" data-name="Rectangle 43" width="3.034" height="19.949" transform="translate(466.988 5317.491) rotate(10.76)" fill="#455a64"/>
    <path id="Path_185" data-name="Path 185" d="M209.628,194.925a3.966,3.966,0,1,1-.615-2.975A3.966,3.966,0,0,1,209.628,194.925Z" transform="translate(270.327 5139.518)" fill="#455a64"/>
    <rect id="Rectangle_44" data-name="Rectangle 44" width="3.034" height="19.949" transform="translate(480.643 5314.246) rotate(10.77)" fill="#455a64"/>
    <path id="Path_186" data-name="Path 186" d="M215.175,181.189l-17.155,5.273.5-2.614,17.17-5.288Z" transform="translate(268.445 5133.666)" fill="#455a64"/>
    <path id="Path_187" data-name="Path 187" d="M185.369,165.829a7.12,7.12,0,1,1-1.1-5.343A7.12,7.12,0,0,1,185.369,165.829Z" transform="translate(255.004 5123.022)" fill="#455a64"/>
    <rect id="Rectangle_45" data-name="Rectangle 45" width="5.438" height="35.827" transform="translate(441.726 5252.586) rotate(10.77)" fill="#455a64"/>
    <rect id="Rectangle_46" data-name="Rectangle 46" width="5.438" height="10.35" transform="translate(461.612 5246.987) rotate(10.77)" fill="#455a64"/>
    <path id="Path_188" data-name="Path 188" d="M206.828,138.262l-25.868,7.947.9-4.7,25.868-7.947Z" transform="translate(259.878 5111.066)" fill="#455a64"/>
    <path id="Path_189" data-name="Path 189" d="M205.708,144.172l-25.868,7.947.886-4.717,25.883-7.932Z" transform="translate(259.316 5114.035)" fill="#455a64"/>
    <path id="Path_190" data-name="Path 190" d="M97.265,332.87l-.3,15.653-3.14,117.172H90.3l-3.14-117.172L86.87,332.87Z" transform="translate(212.626 5211.16)" fill="#455a64"/>
    <path id="Path_191" data-name="Path 191" d="M86.87,332.87h10.4l-.3,15.653H87.155Z" transform="translate(212.626 5211.16)" fill="#263238"/>
    <path id="Path_192" data-name="Path 192" d="M204.32,332.87l-.285,15.653L200.9,465.694h-3.53l-3.14-117.172-.285-15.653Z" transform="translate(266.397 5211.16)" fill="#455a64"/>
    <path id="Path_193" data-name="Path 193" d="M204.32,332.87l-.285,15.653h-9.809l-.285-15.653Z" transform="translate(266.397 5211.16)" fill="#263238"/>
    <path id="Path_194" data-name="Path 194" d="M56.28,332.87l-.285,15.653-3.14,117.172h-3.53l-3.14-117.172L45.9,332.87Z" transform="translate(192.051 5211.16)" fill="#455a64"/>
    <path id="Path_195" data-name="Path 195" d="M45.9,332.87H56.28l-.285,15.653H46.185Z" transform="translate(192.051 5211.16)" fill="#263238"/>
    <path id="Path_196" data-name="Path 196" d="M163.34,332.87l-.285,15.653-3.14,117.172h-3.53l-3.14-117.172-.285-15.653Z" transform="translate(245.816 5211.16)" fill="#455a64"/>
    <path id="Path_197" data-name="Path 197" d="M152.96,332.87h10.38l-.285,15.653h-9.809Z" transform="translate(245.816 5211.16)" fill="#263238"/>
    <rect id="Rectangle_47" data-name="Rectangle 47" width="253.03" height="20.385" transform="translate(226.174 5529.173)" fill="#455a64"/>
  </g>
</svg>
