<svg id="Warstwa_2" data-name="Warstwa 2" xmlns="http://www.w3.org/2000/svg" width="177.954" height="85.357" viewBox="0 0 177.954 85.357">
  <g id="Warstwa_1" data-name="Warstwa 1">
    <path id="Path_1" data-name="Path 1" d="M181.173,82.335c0,6.511-5.433,11.685-12.256,11.685a11.7,11.7,0,1,1,0-23.37C175.652,70.65,181.173,75.877,181.173,82.335Zm-6.475-.053a6.01,6.01,0,0,0-1.636-4.2,5.528,5.528,0,0,0-4.121-1.766,5.3,5.3,0,0,0-4,1.766,5.816,5.816,0,0,0-1.766,4.256,5.887,5.887,0,0,0,1.766,4.3,5.427,5.427,0,0,0,4,1.766,5.657,5.657,0,0,0,4.121-1.766,6.375,6.375,0,0,0,1.648-4.356Z" transform="translate(-64.464 -29.061)" fill="#342c3c"/>
    <path id="Path_2" data-name="Path 2" d="M210.243,73.9c1.642-2.155,4.562-3.079,7.482-3.079a11.432,11.432,0,0,1,3.744.618l-2.514,5.687a5.816,5.816,0,0,0-8.2,4.121v12.2h-6.4V71.385h4.968Z" transform="translate(-84.056 -29.131)" fill="#342c3c"/>
    <path id="Path_3" data-name="Path 3" d="M240,82.664V44.53h6.534V82.664Z" transform="translate(-98.72 -18.317)" fill="#342c3c"/>
    <path id="Path_4" data-name="Path 4" d="M278.073,80.05a11.738,11.738,0,1,1,0-16.812V44.53h6.063V82.664h-6.063Zm-11.426-4.156a5.516,5.516,0,0,0,4.044,1.766,5.651,5.651,0,0,0,4.121-1.766,6.163,6.163,0,0,0,1.689-4.25,6.275,6.275,0,0,0-1.689-4.256,5.651,5.651,0,0,0-4.121-1.766,5.515,5.515,0,0,0-4.043,1.765,6.281,6.281,0,0,0-1.7,4.257,6.169,6.169,0,0,0,1.707,4.25Z" transform="translate(-106.183 -18.317)" fill="#342c3c"/>
    <path id="Path_5" data-name="Path 5" d="M66.351,80.14a5.386,5.386,0,0,0-3.944,1.766A7.547,7.547,0,0,0,61,84.4H71.6a6.116,6.116,0,0,0-1.383-2.514,5.3,5.3,0,0,0-3.862-1.742Z" transform="translate(-25.091 -32.964)" fill="#342c3c"/>
    <path id="Path_6" data-name="Path 6" d="M80.459,20.55H9.607L60.45,2.973,59.455,0,0,20.544H0V74.231A11.126,11.126,0,0,0,11.126,85.357H91.5V31.594A11.043,11.043,0,0,0,80.459,20.55Zm-55.034,43.8H19.173V53.374c0-3.179-2.26-5.993-5.333-5.993S8.506,50.2,8.506,53.374V64.347H2.031V42.254H7.264L8.288,44.2a9.86,9.86,0,0,1,6.3-2.567c5.946,0,10.814,5.233,10.814,11.738Zm27.114-9.012H36.056a6.475,6.475,0,0,0,1.283,2.155,5.3,5.3,0,0,0,3.944,1.766,5.457,5.457,0,0,0,3.791-1.642L49.9,60.845a11.732,11.732,0,1,1,2.843-7.623A9.778,9.778,0,0,1,52.538,55.335Zm27.214,9.024h-.871L73.654,54.41l-5.18,9.948h-.818L56.07,42.254h6.358L68.068,52.98l2.408-4.615-3.179-6.1h6.358L79.293,52.98,84.88,42.266h6.363Z" fill="#342c3c"/>
  </g>
</svg>
