<svg xmlns="http://www.w3.org/2000/svg" width="38.911" height="38.911" viewBox="0 0 38.911 38.911">
  <path id="spotify" d="M19.455,0A19.455,19.455,0,1,0,38.911,19.455,19.455,19.455,0,0,0,19.455,0Zm8.467,28.235a1.33,1.33,0,0,1-1.82.477,19.584,19.584,0,0,0-10.308-2.287,25.572,25.572,0,0,0-5.347.706,1.33,1.33,0,0,1-.705-2.566,27.7,27.7,0,0,1,5.9-.8,25.973,25.973,0,0,1,5.681.411,19.174,19.174,0,0,1,6.125,2.236A1.33,1.33,0,0,1,27.923,28.235ZM30.4,23.1a1.575,1.575,0,0,1-2.156.565,23.2,23.2,0,0,0-12.21-2.709,30.3,30.3,0,0,0-6.334.836,1.576,1.576,0,0,1-.835-3.039,32.806,32.806,0,0,1,6.985-.945,30.771,30.771,0,0,1,6.729.487,22.715,22.715,0,0,1,7.256,2.648A1.576,1.576,0,0,1,30.4,23.1Zm1.52-4.671a1.924,1.924,0,0,1-.974-.264C21.1,12.409,8.326,15.83,8.2,15.865a1.933,1.933,0,0,1-1.027-3.727,40.236,40.236,0,0,1,8.568-1.159,37.751,37.751,0,0,1,8.254.6,27.86,27.86,0,0,1,8.9,3.249,1.933,1.933,0,0,1-.977,3.6Z" fill="#fff"/>
</svg>
